# xmcd
#
# Track frame offsets:
#	150
#	12160
#	25174
#	39035
#	52037
#	64027
#	77933
#	91144
#	105118
#	118433
#	132546
#	146240
#	159402
#	173328
#	187697
#
# Disc length: 2694 seconds
#
# Revision: 1
# Processed by: cddbd v1.5.2PL0 Copyright (c) Steve Scherf et al.
# Submitted via: audiograbber 1.83.01
#
DISCID=b70a840f
DTITLE=Marcos and Belutti - Nosso Lugasr
DYEAR=2010
DGENRE=Sertanejo
TTITLE0=Será Que Vai Rolar
TTITLE1=Perdoa Amor
TTITLE2=Amor Pra Vida Inteira
TTITLE3=Tô Fora
TTITLE4=Tô No Boteco
TTITLE5=Sem Me Controlar
TTITLE6=Desencana de Mim
TTITLE7=A Canção Pra Nós Dois
TTITLE8=Objeto de Prazer
TTITLE9=Vai Sofrer Pra Lá
TTITLE10=Pessoa Errada
TTITLE11=Bateu Levou
TTITLE12=Fique Com Meu Travesseiro
TTITLE13=Eu Acabo Voltando
TTITLE14=Nosso Lugar
EXTD=
EXTT0=
EXTT1=
EXTT2=
EXTT3=
EXTT4=
EXTT5=
EXTT6=
EXTT7=
EXTT8=
EXTT9=
EXTT10=
EXTT11=
EXTT12=
EXTT13=
EXTT14=
PLAYORDER=
